<svg width="211" height="212" viewBox="0 0 211 212" fill="none" xmlns="http://www.w3.org/2000/svg">
<g clip-path="url(#clip0_608_13)">
<path d="M12.3342 46.9832L163.655 198.304L198.303 163.656L46.9824 12.3349L12.3342 46.9832Z" fill="#F2F3F3"/>
<path d="M199.011 164.363C186.124 151.476 167.92 148.785 158.352 158.352C148.785 167.92 151.476 186.124 164.363 199.011C177.25 211.898 195.454 214.589 205.022 205.022C214.589 195.454 211.898 177.25 199.011 164.363Z" fill="#F2F3F3"/>
<path d="M46.9827 12.3345C34.0954 -0.552825 15.8919 -3.24378 6.32408 6.32407C-3.24377 15.8919 -0.552817 34.0954 12.3345 46.9827C25.2218 59.87 43.4253 62.561 52.9931 52.9931C62.561 43.4253 59.87 25.2218 46.9827 12.3345Z" fill="#F2F3F3"/>
<path d="M164.19 13.1622L12.869 164.483L47.5173 199.131L198.838 47.8104L164.19 13.1622Z" fill="#F2F3F3"/>
<path d="M46.8101 199.838C59.6974 186.951 62.3884 168.747 52.8206 159.179C43.2527 149.612 25.0492 152.303 12.1619 165.19C-0.725386 178.077 -3.41634 196.281 6.15151 205.849C15.7194 215.416 33.9228 212.725 46.8101 199.838Z" fill="#F2F3F3"/>
<path d="M198.838 47.8101C211.725 34.9228 214.416 16.7193 204.849 7.15147C195.281 -2.41638 177.077 0.274575 164.19 13.1619C151.303 26.0492 148.612 44.2527 158.179 53.8205C167.747 63.3884 185.951 60.6974 198.838 47.8101Z" fill="#F2F3F3"/>
</g>
<defs>
<clipPath id="clip0_608_13">
<rect width="211" height="212" fill="white"/>
</clipPath>
</defs>
</svg>
