<svg width="281" height="225" viewBox="0 0 281 225" fill="none" xmlns="http://www.w3.org/2000/svg">
<g clip-path="url(#clip0_608_3)">
<path d="M248 0H34V49H248V0Z" fill="#000F39"/>
<path d="M33 49C51.2254 49 66 38.031 66 24.5C66 10.969 51.2254 0 33 0C14.7746 0 0 10.969 0 24.5C0 38.031 14.7746 49 33 49Z" fill="#000F39"/>
<path d="M248 49C266.225 49 281 38.031 281 24.5C281 10.969 266.225 0 248 0C229.775 0 215 10.969 215 24.5C215 38.031 229.775 49 248 49Z" fill="#000F39"/>
<path d="M248 88H34V137H248V88Z" fill="#000F39"/>
<path d="M33 137C51.2254 137 66 126.031 66 112.5C66 98.969 51.2254 88 33 88C14.7746 88 0 98.969 0 112.5C0 126.031 14.7746 137 33 137Z" fill="#000F39"/>
<path d="M248 137C266.225 137 281 126.031 281 112.5C281 98.969 266.225 88 248 88C229.775 88 215 98.969 215 112.5C215 126.031 229.775 137 248 137Z" fill="#000F39"/>
<path d="M248 176H34V225H248V176Z" fill="#000F39"/>
<path d="M33 225C51.2254 225 66 214.031 66 200.5C66 186.969 51.2254 176 33 176C14.7746 176 0 186.969 0 200.5C0 214.031 14.7746 225 33 225Z" fill="#000F39"/>
<path d="M248 225C266.225 225 281 214.031 281 200.5C281 186.969 266.225 176 248 176C229.775 176 215 186.969 215 200.5C215 214.031 229.775 225 248 225Z" fill="#000F39"/>
</g>
<defs>
<clipPath id="clip0_608_3">
<rect width="281" height="225" fill="white"/>
</clipPath>
</defs>
</svg>
